# xmcd CD database file
#
# Track frame offsets:
#	150
#	13995
#	27523
#	46748
#	57700
#	69021
#	80307
#	93719
#	110712
#	126219
#	140699
#	152354
#	170073
#	195564
#
# Disc length: 2769 seconds
#
# Revision: 0
# Processed by: cddbd v1.5.2PL0 Copyright (c) Steve Scherf et al.
# Submitted via: CDex 1.70beta2
#
DISCID=c20acf0e
DTITLE=Helt Oncale - Back Roads and Highways
DYEAR=2014
DGENRE=Country
TTITLE0=SouthernLadies
TTITLE1=Sugarfoot Rag
TTITLE2=Outlaw Days
TTITLE3=Colorado Turnaround
TTITLE4=Blue Canadian Rockies
TTITLE5=Catfish Boogie
TTITLE6=It's Not Over
TTITLE7=Wherever You Are
TTITLE8=From Loving You
TTITLE9=You Won't Forget Me
TTITLE10=Mean What You Say
TTITLE11=Find A Beach
TTITLE12=Slow Down (Live)
TTITLE13=I Was Wrong
EXTD=YEAR: 2014
EXTT0=
EXTT1=
EXTT2=
EXTT3=
EXTT4=
EXTT5=
EXTT6=
EXTT7=
EXTT8=
EXTT9=
EXTT10=
EXTT11=
EXTT12=
EXTT13=
PLAYORDER=
